<?xml version="1.0" encoding="UTF-8" standalone="no"?>
<!DOCTYPE svg PUBLIC "-//W3C//DTD SVG 1.1//EN" "http://www.w3.org/Graphics/SVG/1.1/DTD/svg11.dtd">
<svg width="100%" height="100%" viewBox="0 0 842 596" version="1.1" xmlns="http://www.w3.org/2000/svg" xmlns:xlink="http://www.w3.org/1999/xlink" xml:space="preserve" xmlns:serif="http://www.serif.com/" style="fill-rule:evenodd;clip-rule:evenodd;stroke-linecap:round;stroke-linejoin:round;">
    <g id="at">
        <path d="M153.542,370.515C153.408,370.645 151.792,372.242 149.538,375.117C148.429,370.102 145.351,365.749 140.663,363.443C132.006,359.183 121.145,363.472 116.453,373.007C111.762,382.541 114.989,393.763 123.647,398.023C128.409,400.367 133.834,400.111 138.536,397.83C138.498,399.449 138.722,400.968 139.221,402.374C140.599,406.257 143.524,407.828 144.162,408.118C151.603,411.759 159.743,407.339 164.905,396.849C173.547,379.286 166.49,358.066 149.174,349.545C131.858,341.024 110.739,348.38 102.097,365.942C93.455,383.505 100.512,404.725 117.828,413.246C124.255,416.409 132.939,419.74 143.127,417.416L141.863,411.497C135.34,412.986 128.756,411.841 120.515,407.786C106.167,400.726 100.32,383.143 107.481,368.591C114.641,354.039 132.139,347.945 146.487,355.005C160.834,362.065 166.682,379.647 159.521,394.199C158.549,396.175 153.368,405.866 146.773,402.622C146.289,402.379 142.181,399.995 146.514,391.19C151.561,380.933 157.639,374.914 157.696,374.857L153.542,370.515ZM126.334,392.563C120.644,389.764 118.627,382.179 121.837,375.656C125.046,369.133 132.287,366.103 137.976,368.903C143.666,371.703 145.683,379.288 142.473,385.811C139.264,392.334 132.023,395.363 126.334,392.563Z" style="fill:rgb(243,126,152);"/>
        <g>
            <path d="M138.424,367.993C132.24,364.949 124.396,368.189 120.939,375.214C117.482,382.239 119.701,390.43 125.886,393.473C132.071,396.517 139.914,393.277 143.371,386.252C146.828,379.227 144.609,371.036 138.424,367.993ZM126.781,391.653C121.586,389.097 119.771,382.119 122.734,376.097C125.697,370.076 132.334,367.256 137.529,369.813C142.724,372.369 144.539,379.347 141.576,385.369C138.613,391.391 131.977,394.21 126.781,391.653Z" style="fill:rgb(255,0,0);stroke:rgb(255,0,0);stroke-width:3px;"/>
            <path d="M158.421,374.15L154.266,369.809C153.885,369.411 153.25,369.401 152.85,369.791C152.792,369.846 151.673,370.94 149.988,372.965C148.463,368.337 145.304,364.596 141.111,362.533C131.958,358.029 120.494,362.529 115.556,372.565C110.618,382.601 114.046,394.43 123.199,398.933C127.616,401.107 132.78,401.241 137.574,399.351C137.665,400.537 137.901,401.667 138.276,402.725C139.82,407.077 143.103,408.752 143.716,409.029C151.7,412.936 160.37,408.329 165.802,397.29C174.691,379.225 167.433,357.399 149.622,348.635C131.81,339.87 110.089,347.436 101.2,365.501C92.311,383.566 99.569,405.391 117.38,414.156C123.953,417.391 132.845,420.797 143.338,418.403C143.598,418.343 143.825,418.183 143.969,417.956C144.113,417.73 144.164,417.455 144.107,417.193L142.843,411.274C142.727,410.729 142.192,410.388 141.652,410.512C135.366,411.945 128.986,410.824 120.963,406.876C107.11,400.059 101.464,383.083 108.378,369.033C115.291,354.983 132.187,349.098 146.039,355.915C159.892,362.731 165.538,379.708 158.624,393.758C157.727,395.582 152.96,404.535 147.228,401.716C145.805,401 144.243,398.07 147.411,391.631C152.324,381.647 158.149,375.817 158.395,375.575C158.79,375.184 158.802,374.548 158.421,374.15ZM145.616,390.748C140.853,400.428 145.743,403.239 146.325,403.532C152.094,406.37 157.388,400.8 160.419,394.641C167.826,379.587 161.777,361.398 146.935,354.095C132.093,346.791 113.991,353.096 106.583,368.15C99.176,383.203 105.225,401.392 120.067,408.696C128.115,412.656 134.65,413.906 141.089,412.69L141.932,416.637C132.47,418.468 124.347,415.324 118.276,412.336C101.454,404.058 94.599,383.445 102.994,366.384C111.39,349.323 131.904,342.177 148.726,350.455C165.548,358.732 172.403,379.346 164.008,396.407C159.118,406.343 151.503,410.581 144.582,407.195C144.269,407.046 141.468,405.691 140.166,402.024C139.714,400.753 139.503,399.346 139.539,397.843C139.548,397.493 139.376,397.166 139.084,396.977C138.79,396.787 138.424,396.767 138.11,396.92C133.498,399.156 128.39,399.227 124.095,397.113C115.931,393.097 112.906,382.48 117.35,373.448C121.795,364.416 132.052,360.336 140.215,364.353C144.431,366.427 147.472,370.435 148.559,375.349C148.643,375.727 148.936,376.027 149.312,376.106C149.689,376.19 150.081,376.047 150.322,375.741C151.701,373.98 152.843,372.703 153.53,371.968L156.304,374.866C154.534,376.779 149.744,382.361 145.616,390.748Z" style="fill:rgb(255,0,0);stroke:rgb(255,0,0);stroke-width:3px;"/>
            <path d="M151.162,378.772C151.188,378.792 151.214,378.808 151.243,378.822C151.454,378.926 151.717,378.867 151.865,378.669C152.308,378.081 152.728,377.539 153.124,377.045C153.3,376.826 153.267,376.508 153.051,376.334C152.839,376.164 152.521,376.196 152.346,376.416C151.945,376.917 151.516,377.467 151.068,378.065C150.9,378.288 150.942,378.605 151.162,378.772Z" style="fill:rgb(255,0,0);stroke:rgb(255,0,0);stroke-width:3px;"/>
            <path d="M148.256,383.001C148.273,383.012 148.291,383.021 148.309,383.03C148.533,383.14 148.811,383.066 148.951,382.848C149.534,381.946 150.108,381.103 150.66,380.321C150.822,380.092 150.771,379.777 150.546,379.616C150.317,379.45 150.007,379.511 149.845,379.74C149.285,380.532 148.703,381.387 148.112,382.302C147.961,382.537 148.025,382.85 148.256,383.001Z" style="fill:rgb(255,0,0);stroke:rgb(255,0,0);stroke-width:3px;"/>
            <path d="M147.874,384.563C148.02,384.324 147.947,384.013 147.711,383.869C147.471,383.725 147.167,383.802 147.021,384.041C145.867,385.938 144.79,387.897 143.822,389.865C138.206,401.277 144.669,404.965 145.424,405.349C145.426,405.349 145.428,405.35 145.43,405.351C145.675,405.472 145.974,405.37 146.1,405.122C146.226,404.873 146.129,404.569 145.883,404.444C145.218,404.107 139.534,400.844 144.719,390.307C145.674,388.367 146.735,386.434 147.874,384.563Z" style="fill:rgb(255,0,0);stroke:rgb(255,0,0);stroke-width:3px;"/>
            <path d="M125.438,394.383C121.361,392.377 118.71,388.218 118.348,383.259C118.328,382.98 118.087,382.773 117.812,382.798C117.536,382.822 117.328,383.067 117.349,383.345C117.736,388.662 120.593,393.13 124.99,395.293C125.238,395.415 125.539,395.31 125.663,395.059C125.786,394.808 125.686,394.505 125.438,394.383Z" style="fill:rgb(255,0,0);stroke:rgb(255,0,0);stroke-width:3px;"/>
            <path d="M118.834,378.018C118.904,377.747 118.746,377.472 118.476,377.404C118.209,377.336 117.935,377.501 117.864,377.772C117.588,378.836 117.411,379.924 117.34,381.007C117.327,381.219 117.441,381.405 117.617,381.492C117.675,381.52 117.739,381.538 117.808,381.542C118.085,381.557 118.324,381.343 118.342,381.065C118.409,380.045 118.574,379.019 118.834,378.018Z" style="fill:rgb(255,0,0);stroke:rgb(255,0,0);stroke-width:3px;"/>
        </g>
    </g>
    <g id="arrow">
        <path d="M147.597,414.54L757.033,298" style="fill:none;stroke:rgb(255,0,0);stroke-width:10px;"/>
        <path d="M147.597,414.54L757.033,298" style="fill:none;stroke:black;stroke-width:0.4px;"/>
    </g>
    <g id="Schrift">
        <path d="M131.034,201.149C135.167,193.097 145.597,184.31 162.322,174.789C180.597,164.335 199.168,157.692 218.032,154.861C223.128,154.097 229.68,153.886 237.688,154.226C245.696,154.567 250.472,155.182 252.015,156.072C252.491,156.422 252.853,157.419 253.102,159.064C253.517,161.807 253.683,164.762 253.599,167.929C253.515,171.097 253.186,173.81 252.613,176.071C252.039,178.33 245.363,184.239 232.587,193.799C219.809,203.358 212.984,207.573 212.108,206.442C211.412,205.565 212.887,202.75 216.533,197.995C220.179,193.241 221.783,190.337 221.341,189.281C220.742,188.109 218.306,187.843 214.038,188.484C202.471,190.22 189.195,195.086 174.21,203.084C157.008,212.256 148.968,220.543 150.089,227.948C150.649,231.65 158.793,234.284 174.522,235.85C196.675,237.995 211.364,240.138 218.588,242.278C234.794,246.998 243.768,255.117 245.511,266.634C248.065,283.499 237.987,298.333 215.279,311.135C196.729,321.63 174.235,328.862 147.796,332.829C138.845,334.172 131.216,334.476 124.908,333.739C116.588,332.744 112.097,330.053 111.433,325.665C111.288,324.706 111.655,322.477 112.534,318.979C114.752,310.373 117.325,305.045 120.254,302.993C123.183,300.941 125.559,299.427 127.383,298.452C130.618,296.564 133.062,295.497 134.714,295.249C137.33,294.857 138.825,295.894 139.199,298.362C139.572,300.83 144.303,301.382 153.392,300.018C167.85,297.849 182.931,293.272 198.633,286.288C216.454,278.426 224.899,271.41 223.965,265.24C222.99,258.796 214.589,254.938 198.766,253.667C184.146,252.915 169.516,252.095 154.877,251.207C138.789,249.134 130.145,244.122 128.941,236.169C128.256,231.644 128.138,225.282 128.587,217.081C129.036,208.881 129.852,203.57 131.034,201.149Z" style="fill:rgb(151,0,0);"/>
        <path d="M308.091,202.766C305.109,201.671 303.348,199.342 302.809,195.776C302.497,193.72 302.506,191.686 302.835,189.673C303.165,187.66 303.9,185.306 305.041,182.612C306.182,179.916 308.106,177.279 310.814,174.699C313.522,172.119 316.253,170.622 319.007,170.209C320.521,169.982 321.881,170.128 323.088,170.649C325.361,171.709 326.715,173.68 327.151,176.56C327.462,178.616 327.408,180.587 326.99,182.473C326.571,184.358 325.748,186.831 324.521,189.89C323.294,192.948 321.4,195.791 318.84,198.419C316.28,201.047 313.693,202.557 311.076,202.95C309.975,203.115 308.98,203.054 308.091,202.766ZM296.842,214.971C298.198,214.628 299.657,214.268 301.22,213.894C302.783,213.519 303.633,213.321 303.771,213.3C305.699,213.012 307.363,213.077 308.765,213.498C310.166,213.919 311.083,214.623 311.514,215.61C311.945,216.596 312.233,217.57 312.378,218.53C313.104,223.329 311.477,230.023 307.496,238.613C303.515,247.203 298.525,254.472 292.524,260.421C289.359,263.701 288.295,268.768 289.332,275.624C289.893,279.326 291.008,282.278 292.68,284.481C294.351,286.685 296.564,287.58 299.319,287.166C304.413,286.402 309.92,283.472 315.838,278.377C321.756,273.283 327.582,268.271 333.314,263.345C336.559,265.242 333.962,273.204 325.523,287.23C316.753,301.868 307.686,309.889 298.323,311.294C295.843,311.666 293.568,311.516 291.495,310.846C284.249,308.568 278.759,304.624 275.023,299.015C271.286,293.406 268.744,286.145 267.395,277.233C266.316,270.102 269.838,258.251 277.963,241.677C286.087,225.104 292.38,216.202 296.842,214.971Z" style="fill:rgb(151,0,0);"/>
        <path d="M330.114,265.928C334.792,259.617 339.284,253.475 343.591,247.5C352.321,235.393 355.859,228.061 354.204,225.505C353.646,224.607 351.222,224.41 346.932,224.913C342.642,225.417 340.298,225.278 339.898,224.497C338.719,222.289 339.697,218.286 342.833,212.487C345.969,206.689 348.742,202.907 351.151,201.143C352.287,200.271 354.624,199.43 358.162,198.618C361.701,197.808 365.367,196.907 369.16,195.917C370.316,195.182 372.684,191.743 376.26,185.597C379.836,179.451 382.251,175.864 383.503,174.834C385.244,173.31 388.18,172.239 392.311,171.62C394.239,171.33 395.657,171.398 396.566,171.822C397.476,172.247 397.993,172.87 398.118,173.693C398.346,175.201 397.596,177.698 395.871,181.182C392.323,188.445 390.717,192.261 391.055,192.632C391.73,193.372 392.963,193.607 394.753,193.339C395.855,193.174 396.996,193.037 398.178,192.93C399.359,192.823 400.032,193.318 400.198,194.414C400.847,196.841 399.287,201.422 395.517,208.157C391.749,214.894 388.501,219.026 385.776,220.557C384.206,221.353 382.183,221.937 379.704,222.31C377.776,222.599 376.399,222.806 375.573,222.929C373.094,223.302 371.583,224.019 371.039,225.082C366.777,234.135 363.543,242.543 361.338,250.306C358.844,258.953 357.971,265.745 358.718,270.681C359.32,274.657 360.809,277.519 363.186,279.265C364.295,280.081 365.676,280.365 367.328,280.117C371.597,279.475 377.337,275.529 384.549,268.277C386.874,265.965 390.056,262.333 394.095,257.38L395.371,265.812C395.579,267.183 390.887,272.935 381.295,283.069C370.354,294.526 361.166,300.812 353.73,301.928C348.498,302.714 344.299,301.03 341.135,296.877C340.081,295.493 339.336,293.361 338.9,290.481C338.278,286.368 338.498,281.076 339.561,274.607C340.623,268.138 341.144,264.834 341.124,264.698C339.341,265.946 337.548,267.127 335.745,268.238C334.789,269.364 333.317,271.267 331.328,273.949L330.114,265.928Z" style="fill:rgb(151,0,0);"/>
        <path d="M388.747,261.127C386.9,248.924 389.616,237.089 396.893,225.62C402.692,216.476 410.753,208.326 421.076,201.167C429.618,195.259 436.711,191.88 442.357,191.033C447.314,190.289 451.072,190.917 453.628,192.918C455.391,194.336 456.449,196.211 456.802,198.542C458.525,209.922 452.453,221.911 438.586,234.508C423.273,245.92 414.618,252.477 412.623,254.179C411.625,255.03 411.271,256.415 411.562,258.335C412.018,261.351 413.905,264.047 417.222,266.424C420.539,268.801 424.884,269.587 430.254,268.781C436.175,267.893 443.415,263.16 451.976,254.584C459.304,247.175 462.937,243.263 462.875,242.852L464.244,251.901C464.556,253.959 459.878,260.27 450.211,270.834C438.843,283.197 428.203,290.123 418.288,291.61C410.164,292.829 403.186,289.529 397.355,281.711C392.758,275.529 389.889,268.668 388.747,261.127ZM422.596,218.188C419.631,221.857 417.074,226.133 414.926,231.012C412.777,235.892 412.337,238.797 413.604,239.728C414.713,240.544 417.434,238.979 421.766,235.033C426.098,231.088 429.853,227.055 433.032,222.931C435.158,220.229 436.913,217.406 438.299,214.463C439.684,211.521 440.231,209.09 439.941,207.171C439.837,206.486 439.548,205.968 439.072,205.618C438.397,204.878 436.131,205.955 432.273,208.847C428.416,211.74 425.19,214.853 422.596,218.188Z" style="fill:rgb(151,0,0);"/>
        <path d="M554.365,269.509C552.368,268.407 550.86,267.054 549.844,265.454C548.826,263.854 548.131,261.82 547.757,259.352C547.01,254.417 548.041,247.04 550.852,237.223C553.661,227.407 554.942,221.676 554.693,220.031C554.423,218.248 553.324,217.501 551.396,217.791L511.036,224.689C510.21,224.812 505.955,231.13 498.272,243.641C488.78,259.088 480.925,270.923 474.706,279.148C464.84,292.127 456.947,299.061 451.026,299.949C449.649,300.156 448.795,299.162 448.462,296.969C447.818,292.718 450.314,285.473 455.946,275.233C461.578,264.992 465.358,259.728 467.286,259.438C471.492,258.387 476.46,253.749 482.186,245.529C487.913,237.308 489.715,232.234 487.593,230.31C486.284,229.104 484.39,228.687 481.912,229.058C479.316,229.588 477.33,229.956 475.953,230.163C473.611,230.514 471.738,230.234 470.333,229.323C468.156,227.968 469.574,222.916 474.589,214.172C480.05,204.658 486.267,198.748 493.24,196.439C496.07,195.593 498.173,195.067 499.551,194.861C502.442,194.427 504.15,195.013 504.675,196.616C505.199,198.22 506.15,198.919 507.527,198.712C513.035,197.885 518.33,193.796 523.414,186.442C531.614,174.555 541.586,161.35 553.331,146.827C562.832,135.165 573.455,123.475 585.201,111.757C595.736,101.341 601.899,95.999 603.69,95.731C605.204,95.503 606.871,96.516 608.691,98.766C610.51,101.018 611.534,102.898 611.762,104.405C612.488,109.205 611.137,116.558 607.708,126.468C604.279,136.377 600.818,146.082 597.326,155.58C593.835,165.079 592.317,171.336 592.774,174.352C592.981,175.723 593.627,176.503 594.712,176.691C595.797,176.878 598.484,176.721 602.774,176.217C607.063,175.713 609.178,176.658 609.118,179.051C608.92,181.465 607.717,185.151 605.51,190.11C602.973,195.679 600.046,200.535 596.73,204.678C595.54,206.119 593.154,207.108 589.574,207.645C585.994,208.182 583.588,209.034 582.357,210.201C580.01,212.375 577.635,218.551 575.232,228.727C572.828,238.904 572.378,244.3 573.879,244.916C575.678,245.628 579.374,243.53 584.968,238.624C596.392,228.497 602.042,223.022 601.917,222.199L602.882,228.575C602.945,228.986 601.885,230.827 599.704,234.099C598.906,235.341 596.763,238.397 593.276,243.267C588.969,249.242 584.294,254.642 579.251,259.465C572.231,266.126 566.243,269.83 561.286,270.573C558.67,270.967 556.363,270.611 554.365,269.509ZM586.124,131.81C586.701,130.041 586.948,128.883 586.865,128.334C584.67,129.644 582.533,130.877 580.454,132.03C577.523,134.994 570.26,143.305 558.667,156.964C554.725,161.622 550.611,167.007 546.324,173.119C540.773,181.103 538.153,186.124 538.464,188.181C538.61,189.141 539.292,189.458 540.51,189.136L567.308,181.959L586.124,131.81Z" style="fill:rgb(151,0,0);"/>
        <path d="M648.897,200.425C646.789,207.894 642.387,215.566 635.693,223.441C632.349,226.467 629.073,229.482 625.866,232.487L624.621,224.262C627.106,222.065 628.874,220.258 629.927,218.838C633.36,214.536 634.817,210.672 634.298,207.244C634.111,206.011 633.435,204.569 632.271,202.921C631.106,201.273 630.451,199.968 630.305,199.01C629.164,191.468 631.747,182.947 638.055,173.447C643.915,164.715 649.049,160.018 653.456,159.357C654.833,159.151 655.865,160.153 656.551,162.363C657.238,164.574 657.924,166.083 658.61,166.892C659.296,167.7 660.947,167.909 663.563,167.516C666.179,167.124 670.59,165.796 676.797,163.532C683.003,161.269 686.863,160.023 688.378,159.796C688.791,159.735 689.204,159.673 689.617,159.61C690.209,159.802 690.574,159.887 690.712,159.867C693.177,160.338 695.56,162.82 697.859,167.313C700.158,171.806 701.057,174.72 700.556,176.058C699.958,177.69 698.585,179.789 696.439,182.355C691.465,188.57 687.6,195.6 684.844,203.446C684.095,205.942 683.316,208.933 682.506,212.42C681.696,215.907 681.446,218.679 681.758,220.736C682.09,222.929 682.934,224.555 684.291,225.614C685.649,226.672 687.704,226.995 690.458,226.582C694.451,225.982 698.87,223.076 703.715,217.862C705.297,216.222 707.306,213.677 709.741,210.227L711.049,218.865C711.339,220.784 707.855,226.144 700.596,234.946C692.265,245.031 684.932,250.548 678.598,251.498C674.466,252.118 670.815,250.563 667.645,246.832C664.475,243.101 662.517,238.767 661.77,233.832C660.608,226.152 662.361,217.266 667.029,207.171C669.395,202.328 671.76,197.486 674.125,192.644C674.001,191.821 672.768,191.585 670.427,191.937C666.847,192.474 662.407,193.842 657.106,196.039C651.806,198.237 649.069,199.699 648.897,200.425Z" style="fill:rgb(151,0,0);"/>
        <path d="M706.663,209.427C711.341,203.116 715.833,196.972 720.139,190.998C728.87,178.891 732.407,171.559 730.753,169.003C730.194,168.105 727.771,167.908 723.48,168.411C719.191,168.914 716.846,168.776 716.446,167.994C715.267,165.788 716.246,161.785 719.382,155.986C722.517,150.186 725.29,146.405 727.7,144.641C728.835,143.77 731.172,142.928 734.711,142.117C738.249,141.305 741.915,140.404 745.709,139.414C746.865,138.681 749.231,135.24 752.808,129.095C756.385,122.949 758.799,119.361 760.052,118.333C761.793,116.809 764.728,115.738 768.859,115.117C770.787,114.829 772.206,114.896 773.115,115.321C774.024,115.745 774.541,116.368 774.665,117.191C774.894,118.699 774.145,121.195 772.419,124.679C768.871,131.942 767.266,135.759 767.603,136.13C768.279,136.869 769.511,137.105 771.302,136.836C772.403,136.671 773.544,136.535 774.725,136.428C775.906,136.321 776.579,136.816 776.745,137.913C777.394,140.34 775.834,144.92 772.066,151.656C768.297,158.391 765.05,162.525 762.324,164.055C760.755,164.852 758.731,165.435 756.252,165.808C754.325,166.096 752.948,166.303 752.12,166.427C749.642,166.799 748.131,167.517 747.588,168.58C743.325,177.633 740.091,186.041 737.886,193.804C735.393,202.451 734.519,209.243 735.266,214.179C735.868,218.156 737.357,221.016 739.734,222.763C740.843,223.578 742.224,223.862 743.876,223.614C748.145,222.974 753.886,219.027 761.097,211.775C763.423,209.463 766.605,205.83 770.643,200.878L771.919,209.31C772.127,210.682 767.435,216.433 757.843,226.567C746.902,238.024 737.714,244.311 730.279,245.426C725.045,246.212 720.847,244.528 717.684,240.375C716.629,238.991 715.884,236.859 715.449,233.98C714.826,229.867 715.046,224.575 716.109,218.105C717.172,211.636 717.693,208.333 717.672,208.195C715.89,209.444 714.097,210.625 712.293,211.737C711.337,212.861 709.865,214.765 707.877,217.448L706.663,209.427Z" style="fill:rgb(151,0,0);"/>
        <path d="M128.813,196.693C132.945,188.641 143.375,179.854 160.101,170.333C178.376,159.879 196.946,153.236 215.811,150.405C220.907,149.641 227.458,149.43 235.466,149.77C243.474,150.111 248.251,150.726 249.794,151.616C250.269,151.966 250.631,152.964 250.88,154.608C251.295,157.351 251.461,160.306 251.377,163.474C251.293,166.641 250.965,169.354 250.391,171.614C249.818,173.874 243.142,179.783 230.365,189.343C217.588,198.902 210.762,203.116 209.887,201.986C209.191,201.109 210.666,198.294 214.312,193.539C217.958,188.785 219.56,185.881 219.119,184.825C218.519,183.653 216.085,183.387 211.816,184.028C200.25,185.763 186.973,190.63 171.989,198.628C154.787,207.8 146.747,216.087 147.867,223.492C148.428,227.194 156.572,229.828 172.3,231.394C194.453,233.539 209.142,235.682 216.367,237.823C232.573,242.542 241.547,250.661 243.29,262.178C245.842,279.042 235.765,293.876 213.057,306.679C194.507,317.174 172.013,324.406 145.574,328.373C136.623,329.716 128.994,330.02 122.686,329.283C114.367,328.289 109.876,325.597 109.212,321.209C109.066,320.249 109.433,318.02 110.312,314.523C112.53,305.917 115.103,300.588 118.032,298.537C120.961,296.485 123.337,294.971 125.161,293.996C128.396,292.108 130.84,291.041 132.492,290.793C135.109,290.4 136.604,291.438 136.977,293.906C137.351,296.374 142.081,296.926 151.17,295.563C165.629,293.393 180.709,288.816 196.412,281.832C214.233,273.97 222.678,266.954 221.744,260.783C220.769,254.34 212.368,250.481 196.544,249.211C181.924,248.459 167.294,247.64 152.655,246.751C136.568,244.678 127.923,239.666 126.72,231.713C126.035,227.188 125.917,220.826 126.366,212.625C126.814,204.425 127.63,199.114 128.813,196.693Z" style="fill:rgb(230,0,0);"/>
        <path d="M305.87,198.311C302.888,197.215 301.127,194.885 300.587,191.32C300.276,189.264 300.285,187.23 300.614,185.217C300.943,183.204 301.678,180.85 302.819,178.155C303.961,175.46 305.885,172.823 308.593,170.243C311.3,167.663 314.031,166.166 316.785,165.753C318.3,165.526 319.66,165.672 320.865,166.193C323.139,167.253 324.493,169.224 324.929,172.104C325.24,174.16 325.187,176.131 324.768,178.017C324.349,179.902 323.526,182.375 322.299,185.434C321.072,188.493 319.178,191.335 316.619,193.963C314.059,196.591 311.471,198.101 308.855,198.494C307.753,198.659 306.758,198.598 305.87,198.311ZM294.619,210.515C295.975,210.172 297.436,209.812 298.999,209.438C300.561,209.063 301.412,208.865 301.549,208.844C303.477,208.556 305.142,208.621 306.543,209.042C307.945,209.463 308.861,210.167 309.292,211.154C309.723,212.14 310.011,213.114 310.157,214.073C310.883,218.873 309.256,225.567 305.275,234.157C301.294,242.747 296.302,250.016 290.302,255.965C287.137,259.245 286.073,264.312 287.111,271.168C287.671,274.869 288.787,277.822 290.458,280.025C292.129,282.229 294.342,283.124 297.097,282.711C302.192,281.946 307.698,279.016 313.616,273.921C319.534,268.826 325.361,263.815 331.093,258.888C334.337,260.786 331.74,268.747 323.301,282.774C314.531,297.412 305.465,305.433 296.1,306.838C293.622,307.21 291.346,307.06 289.273,306.39C282.028,304.112 276.537,300.168 272.802,294.559C269.065,288.95 266.522,281.689 265.174,272.777C264.095,265.647 267.617,253.795 275.742,237.221C283.866,220.648 290.158,211.746 294.619,210.515Z" style="fill:rgb(230,0,0);"/>
        <path d="M327.893,261.472C332.571,255.161 337.063,249.019 341.369,243.044C350.1,230.937 353.637,223.605 351.983,221.048C351.425,220.151 349.001,219.954 344.71,220.457C340.421,220.961 338.076,220.821 337.676,220.041C336.497,217.833 337.476,213.83 340.612,208.031C343.748,202.232 346.52,198.451 348.93,196.687C350.065,195.815 352.402,194.974 355.941,194.162C359.479,193.351 363.145,192.451 366.939,191.461C368.095,190.726 370.461,187.287 374.038,181.141C377.615,174.995 380.029,171.408 381.282,170.378C383.023,168.855 385.959,167.783 390.089,167.164C392.017,166.874 393.436,166.942 394.345,167.366C395.254,167.791 395.771,168.414 395.895,169.237C396.124,170.745 395.375,173.242 393.649,176.726C390.101,183.989 388.496,187.805 388.834,188.175C389.509,188.916 390.742,189.151 392.532,188.883C393.633,188.718 394.774,188.581 395.955,188.474C397.136,188.367 397.809,188.862 397.975,189.958C398.625,192.385 397.064,196.966 393.296,203.701C389.527,210.437 386.28,214.57 383.554,216.101C381.985,216.897 379.961,217.482 377.482,217.853C375.555,218.143 374.178,218.35 373.352,218.473C370.872,218.846 369.361,219.563 368.818,220.626C364.555,229.679 361.321,238.087 359.116,245.85C356.623,254.497 355.749,261.289 356.496,266.225C357.098,270.201 358.587,273.063 360.964,274.809C362.073,275.625 363.454,275.908 365.106,275.66C369.375,275.019 375.116,271.073 382.327,263.821C384.653,261.509 387.835,257.877 391.873,252.924L393.149,261.356C393.357,262.727 388.665,268.479 379.073,278.612C368.132,290.07 358.944,296.356 351.509,297.472C346.275,298.257 342.077,296.573 338.914,292.421C337.859,291.037 337.114,288.905 336.679,286.025C336.056,281.912 336.276,276.621 337.339,270.151C338.402,263.682 338.923,260.378 338.902,260.241C337.12,261.49 335.327,262.67 333.524,263.782C332.567,264.908 331.095,266.812 329.107,269.493L327.893,261.472Z" style="fill:rgb(230,0,0);"/>
        <path d="M386.526,256.671C384.679,244.468 387.394,232.632 394.671,221.164C400.47,212.02 408.531,203.87 418.855,196.711C427.397,190.803 434.49,187.424 440.135,186.577C445.093,185.833 448.85,186.461 451.406,188.462C453.17,189.88 454.228,191.755 454.581,194.085C456.303,205.465 450.231,217.455 436.365,230.052C421.051,241.464 412.397,248.021 410.401,249.723C409.403,250.574 409.05,251.959 409.34,253.879C409.797,256.895 411.684,259.591 415.001,261.968C418.318,264.345 422.661,265.131 428.032,264.325C433.953,263.436 441.194,258.704 449.755,250.128C457.083,242.719 460.715,238.807 460.653,238.396L462.023,247.445C462.334,249.503 457.656,255.814 447.988,266.378C436.622,278.741 425.981,285.667 416.066,287.155C407.942,288.373 400.965,285.073 395.133,277.254C390.536,271.073 387.667,264.212 386.526,256.671ZM420.374,213.731C417.409,217.401 414.852,221.676 412.704,226.556C410.556,231.436 410.115,234.341 411.383,235.272C412.492,236.088 415.212,234.523 419.544,230.578C423.877,226.632 427.632,222.598 430.81,218.475C432.936,215.773 434.692,212.95 436.077,210.007C437.462,207.065 438.01,204.634 437.719,202.715C437.616,202.03 437.326,201.512 436.851,201.162C436.175,200.422 433.909,201.499 430.052,204.392C426.194,207.284 422.968,210.397 420.374,213.731Z" style="fill:rgb(230,0,0);"/>
        <path d="M552.144,265.053C550.146,263.951 548.638,262.599 547.621,260.998C546.604,259.398 545.909,257.364 545.536,254.896C544.789,249.961 545.82,242.584 548.629,232.767C551.44,222.951 552.72,217.22 552.471,215.575C552.201,213.792 551.103,213.046 549.174,213.334L508.814,220.232C507.988,220.356 503.734,226.673 496.05,239.185C486.559,254.632 478.703,266.467 472.484,274.692C462.619,287.671 454.726,294.605 448.805,295.493C447.427,295.7 446.572,294.706 446.24,292.513C445.597,288.262 448.091,281.017 453.725,270.777C459.357,260.536 463.137,255.271 465.065,254.982C469.271,253.931 474.238,249.293 479.965,241.073C485.692,232.852 487.494,227.778 485.372,225.853C484.063,224.647 482.169,224.231 479.69,224.602C477.095,225.132 475.109,225.5 473.731,225.706C471.39,226.058 469.517,225.778 468.111,224.867C465.935,223.512 467.353,218.46 472.367,209.716C477.828,200.202 484.045,194.292 491.019,191.983C493.848,191.137 495.951,190.611 497.328,190.405C500.221,189.971 501.929,190.556 502.453,192.16C502.978,193.764 503.928,194.463 505.305,194.256C510.813,193.429 516.109,189.34 521.192,181.986C529.393,170.099 539.364,156.894 551.109,142.371C560.61,130.709 571.233,119.019 582.98,107.3C593.515,96.885 599.677,91.543 601.468,91.275C602.983,91.047 604.65,92.059 606.469,94.31C608.288,96.562 609.312,98.441 609.54,99.949C610.267,104.749 608.915,112.102 605.486,122.012C602.057,131.922 598.596,141.626 595.105,151.124C591.613,160.623 590.096,166.88 590.552,169.896C590.76,171.267 591.406,172.047 592.49,172.234C593.575,172.422 596.262,172.265 600.551,171.761C604.842,171.257 606.956,172.202 606.896,174.595C606.698,177.009 605.496,180.695 603.289,185.654C600.752,191.223 597.824,196.079 594.508,200.222C593.318,201.662 590.933,202.652 587.353,203.189C583.773,203.726 581.367,204.578 580.135,205.745C577.788,207.919 575.414,214.095 573.01,224.271C570.607,234.448 570.156,239.844 571.658,240.46C573.455,241.171 577.152,239.074 582.747,234.168C594.17,224.04 599.819,218.566 599.695,217.743L600.661,224.119C600.723,224.53 599.663,226.371 597.482,229.644C596.685,230.885 594.542,233.941 591.054,238.811C586.748,244.786 582.073,250.186 577.029,255.009C570.009,261.671 564.021,265.374 559.064,266.117C556.448,266.51 554.141,266.155 552.144,265.053ZM583.903,127.354C584.48,125.585 584.727,124.426 584.644,123.878C582.448,125.188 580.311,126.421 578.232,127.574C575.301,130.537 568.038,138.849 556.445,152.507C552.503,157.166 548.388,162.551 544.103,168.662C538.552,176.647 535.932,181.668 536.243,183.725C536.388,184.684 537.07,185.002 538.289,184.68L565.087,177.504L583.903,127.354Z" style="fill:rgb(230,0,0);"/>
        <path d="M646.676,195.97C644.567,203.438 640.166,211.11 633.471,218.985C630.127,222.011 626.852,225.026 623.644,228.031L622.399,219.805C624.883,217.609 626.653,215.802 627.705,214.382C631.138,210.08 632.595,206.216 632.076,202.788C631.89,201.554 631.214,200.113 630.049,198.465C628.884,196.817 628.229,195.513 628.084,194.553C626.943,187.012 629.526,178.491 635.833,168.991C641.694,160.259 646.827,155.562 651.233,154.901C652.611,154.695 653.643,155.697 654.33,157.907C655.017,160.118 655.703,161.627 656.388,162.436C657.074,163.245 658.725,163.453 661.341,163.06C663.957,162.668 668.369,161.34 674.574,159.076C680.781,156.813 684.641,155.567 686.156,155.34C686.569,155.279 686.982,155.216 687.395,155.154C687.988,155.346 688.353,155.431 688.49,155.411C690.956,155.882 693.338,158.364 695.637,162.857C697.937,167.35 698.836,170.265 698.334,171.602C697.736,173.234 696.364,175.333 694.217,177.899C689.243,184.114 685.378,191.144 682.623,198.99C681.874,201.486 681.094,204.477 680.284,207.964C679.474,211.451 679.225,214.223 679.536,216.28C679.868,218.473 680.713,220.099 682.07,221.158C683.427,222.216 685.483,222.539 688.237,222.126C692.23,221.526 696.648,218.62 701.492,213.406C703.076,211.766 705.085,209.221 707.52,205.771L708.827,214.409C709.118,216.328 705.634,221.689 698.374,230.49C690.043,240.575 682.71,246.092 676.375,247.042C672.244,247.662 668.594,246.107 665.424,242.376C662.254,238.645 660.295,234.311 659.548,229.375C658.386,221.696 660.139,212.81 664.808,202.715C667.173,197.872 669.538,193.03 671.904,188.188C671.779,187.365 670.547,187.129 668.206,187.481C664.626,188.019 660.185,189.386 654.885,191.583C649.584,193.781 646.848,195.243 646.676,195.97Z" style="fill:rgb(230,0,0);"/>
        <path d="M704.441,204.97C709.119,198.659 713.611,192.516 717.918,186.542C726.647,174.435 730.186,167.103 728.531,164.547C727.973,163.649 725.548,163.452 721.259,163.955C716.969,164.458 714.625,164.32 714.225,163.538C713.046,161.332 714.024,157.329 717.16,151.53C720.296,145.73 723.068,141.949 725.477,140.185C726.613,139.314 728.951,138.472 732.489,137.661C736.028,136.849 739.694,135.948 743.487,134.959C744.643,134.225 747.01,130.784 750.586,124.639C754.163,118.493 756.578,114.905 757.83,113.876C759.571,112.353 762.507,111.282 766.638,110.661C768.566,110.372 769.984,110.439 770.893,110.865C771.802,111.289 772.319,111.912 772.444,112.735C772.672,114.243 771.923,116.739 770.197,120.224C766.649,127.486 765.044,131.303 765.382,131.674C766.057,132.413 767.29,132.649 769.08,132.381C770.182,132.215 771.323,132.079 772.504,131.972C773.684,131.865 774.358,132.36 774.524,133.457C775.173,135.884 773.613,140.464 769.844,147.2C766.075,153.935 762.828,158.069 760.103,159.599C758.533,160.396 756.509,160.979 754.031,161.352C752.103,161.64 750.725,161.848 749.899,161.971C747.42,162.343 745.909,163.06 745.366,164.124C741.103,173.177 737.87,181.585 735.665,189.348C733.171,197.995 732.298,204.787 733.045,209.723C733.647,213.699 735.136,216.56 737.513,218.307C738.622,219.123 740.003,219.406 741.655,219.158C745.923,218.517 751.663,214.571 758.875,207.319C761.201,205.007 764.383,201.374 768.422,196.422L769.698,204.854C769.905,206.225 765.213,211.977 755.622,222.111C744.681,233.568 735.493,239.855 728.057,240.97C722.824,241.756 718.626,240.072 715.462,235.919C714.408,234.535 713.663,232.403 713.227,229.524C712.604,225.411 712.825,220.119 713.887,213.649C714.95,207.18 715.471,203.876 715.451,203.739C713.668,204.988 711.875,206.169 710.072,207.28C709.116,208.405 707.643,210.309 705.655,212.992L704.441,204.97Z" style="fill:rgb(230,0,0);"/>
    </g>
</svg>
